<?xml version="1.0" encoding="UTF-8" standalone="no"?><!DOCTYPE svg PUBLIC "-//W3C//DTD SVG 1.1//EN" "http://www.w3.org/Graphics/SVG/1.1/DTD/svg11.dtd"><svg width="100%" height="100%" viewBox="0 0 180 180" version="1.1" xmlns="http://www.w3.org/2000/svg" xmlns:xlink="http://www.w3.org/1999/xlink" xml:space="preserve" xmlns:serif="http://www.serif.com/" style="fill-rule:evenodd;clip-rule:evenodd;stroke-linejoin:round;stroke-miterlimit:2;"><path d="M45.434,59.039c-9.193,59.793 3.595,66.174 3.595,66.174c0,0 -7.475,1.469 -8.084,4.105c-0.609,2.636 2.012,6.436 5.06,9.085c3.803,3.304 10.121,7.95 11.577,8.922c0.301,-0.701 -1.781,-8.11 -1.781,-8.11c0,0 16.397,10.406 30.265,11.868c18.795,1.98 26.405,-1.339 26.405,-1.339c0,0 -4.847,18.661 -31.295,22.316c-29.213,4.037 -43.23,-22.711 -56.214,-27.126c-7.165,-2.437 -21.69,0.635 -21.69,0.635c0,0 12.945,-4.894 14.254,-24.446c1.518,-22.673 -7.079,-28.844 -7.079,-28.844c0,0 12.879,-13.145 6.634,-31.45c-0.878,-2.574 -2.626,-2.603 -6.438,-6.446c-1.982,-1.998 -5.988,-8.146 -5.988,-8.146c0,0 15.007,7.189 36.895,-3.492c15.151,-7.394 18.759,7.182 18.759,7.182c0,0 -13.372,-0.66 -14.875,9.113Z" style="fill:#e95757;"/><path d="M112.472,129.026l-27.82,-44.895c0,0 -2.309,18.628 1.647,27.28c8.811,19.272 20.889,22.597 20.889,22.597c0,0 -14.108,2.54 -24.901,-2.066c-1.718,-0.733 -9.049,-5.787 -9.049,-5.787c0,0 -12.137,8.966 -15.365,10.654c-6.279,3.283 -24.367,5.897 -24.367,5.897c0,0 27.417,-19.032 27.489,-37.363c0.118,-30.133 -10.207,-34.478 -10.207,-34.478c0,0 10.715,-8.494 10.793,-22.244c0.17,-30.176 -31.339,-30.735 -31.339,-30.735c0,0 11.202,-4.983 15.193,-5.645c4.136,-0.686 10.92,1.049 13.545,1.531c2.247,0.413 12.373,3.608 15.523,4.114c14.64,2.352 27.242,-2.18 27.242,-2.18c0,0 -12.78,12.032 -11.745,17.872c7.196,17.797 20.929,34.617 20.929,34.617l18.542,-32.279c0.03,-8.044 -14.312,-20.649 -14.312,-20.649c0,0 17.087,9.668 31.729,2.618c24.847,-11.962 29.33,1.404 29.33,1.404c0,0 -16.855,-3.153 -14.814,28.327c1.375,21.205 14.666,22.301 14.666,22.301c0,0 -8.867,2.344 -12.326,13.71c-1.194,3.925 -1.784,7.853 -1.784,11.78c0,4.084 0.559,7.963 2.166,11.429c4.25,9.167 10.841,11.305 10.841,11.305c0,0 -5.297,0.712 -16.003,11.868c-8.793,9.162 -11.31,21.073 -11.31,21.073c0,0 -0.413,-11.492 -8.486,-21.736c-5.591,-7.094 -18.087,-10.727 -18.087,-10.727c0,0 9.049,-1.746 10.964,-13.315c0.398,-2.404 1.769,-23.597 1.769,-23.597l-21.342,47.319Z" style="fill:#e95757;"/><path d="M101.745,154.759c0,0 -11.93,10.824 -30.534,10.02c-20.177,-0.871 -27.161,-12.862 -36.001,-18.53c-9.504,-6.095 -19.758,-5.654 -22.377,-5.178c3.174,-3.809 7.905,-10.951 8.112,-17.324c0.775,-23.837 -3.788,-30.762 -5.137,-31.953c2.222,-4.126 4.639,-4.56 5.14,-16.608c0.412,-9.899 -0.148,-16.166 -2.046,-18.742c-1.854,-2.516 -6.903,-4.999 -9.046,-6.427c1.508,0.159 11.399,1.603 16.687,1.143c7.881,-0.686 10.488,-5.098 19.948,-5.261c4.483,-0.077 5.221,1.619 7.047,1.857c-1.984,0 -3.868,0.754 -5.654,2.261c-1.785,1.508 -3.372,3.432 -4.761,5.773c-1.389,2.341 -2.5,4.92 -3.333,7.737c-0.833,2.817 -1.25,5.574 -1.25,8.272l0,30.113c0.139,15.313 3.928,21.424 3.928,21.424c0,0 -6.879,0.856 -8.808,6.308c0.476,1.587 1.885,3.551 4.225,5.892c2.341,2.341 5.059,4.682 8.153,7.022c3.095,2.341 6.288,4.463 9.581,6.368c3.293,1.904 6.09,3.214 8.391,3.928c-1.032,-1.349 -4.84,-8.054 -5.475,-9.403c3.65,2.222 12.168,8.683 19.008,10.212c16.415,3.67 22.611,1.254 24.198,1.095Z" style="fill:#fff;fill-rule:nonzero;"/><path d="M109.619,114.025l-28.619,-46.541c0,0 -0.331,12.247 -0.976,19.303c-2.751,30.044 12.931,41.272 12.931,41.272c0,0 -5.802,-0.105 -11.747,-3.054c-6.794,-3.37 -7.478,-6.395 -9.515,-8.062c-1.297,2.223 -4.961,9.098 -9.132,12.255c-4.376,3.311 -13.513,6.501 -17.125,7.612c2.779,-2.686 14.33,-8.598 18.408,-31.815c3.7,-21.064 -2.431,-30.703 -4.654,-34.037c4.538,-8.706 6.807,-16.486 6.807,-23.34c0,-5.835 -1.505,-11.091 -4.515,-15.768c-3.01,-4.677 -7.294,-9.007 -12.851,-12.99c0.926,-0.278 7.839,-2.173 23.225,2.412c9.182,2.736 17.805,1.015 18.731,0.922c-0.834,0.648 -5.974,9.493 -5.974,9.493l27.647,51.358l23.062,-46.819c-1.111,-3.242 -2.385,-5.974 -3.821,-8.197c-1.436,-2.223 -3.311,-4.307 -5.627,-6.252c0.648,0.185 13.562,1.391 20.487,-0.606c15.835,-4.566 22.581,-3.284 22.581,-3.284c0,0 -12.081,4.864 -12.216,10.209c-1.064,42.01 9.433,41.99 9.433,41.99c0,0 -7.62,0.032 -7.184,24.451c0.322,18.026 7.605,23.656 7.605,23.656c0,0 -5.152,-0.065 -10.62,4.194c-5.517,4.297 -7.996,12.755 -7.996,12.755c0,0 -2.521,-7.515 -7.829,-12.572c-2.604,-2.481 -10.093,-4.377 -10.093,-4.377c0,0 8.834,-3.383 7.422,-29.81c-0.467,-8.74 -0.893,-25.9 -0.893,-25.9l-26.952,51.542Z" style="fill:#fff;fill-rule:nonzero;"/></svg>